# xmcd
#
# Track frame offsets: 
#        187
#        15327
#        34237
#        52957
#        76235
#        109290
#        126380
#        140117
#        152187
#        162252
#        180782
#        197845
#        212387
#        228332
#        248052
#        262617
#        282422
#        294357
#
# Disc length: 4165 seconds
#
# Revision: 2
# Processed by: cddbd v1.5.2PL0 Copyright (c) Steve Scherf et al.
# Submitted via: ExactAudioCopy v0.95b3
#
DISCID=f0104312
DTITLE=Nanci Griffith - The MCA Years - A Retrospective
DYEAR=1993
DGENRE=Country
TTITLE0=Trouble in the Fields
TTITLE1=From a Distance
TTITLE2=I Don't Wanna Talk About Love
TTITLE3=Deadwood, South Dakota
TTITLE4=Love at the Five and Dime
TTITLE5=Listen to the Radio
TTITLE6=Gulf Coast Highway
TTITLE7=I Wish it Would Rain
TTITLE8=Ford Econoline
TTITLE9=So Long Ago
TTITLE10=If Wishes Were Changes
TTITLE11=The Wing and the Wheel
TTITLE12=Late Night Grande Hotel
TTITLE13=It's Just Another Morning Here
TTITLE14=Drive-In Movies and Dashboard Lights
TTITLE15=There's a Light Beyond These Woods
TTITLE16=Outbound Plane
TTITLE17=It's a Hard Life Wherever You Go
EXTD=
EXTT0=
EXTT1=
EXTT2=
EXTT3=
EXTT4=
EXTT5=
EXTT6=
EXTT7=
EXTT8=
EXTT9=
EXTT10=
EXTT11=
EXTT12=
EXTT13=
EXTT14=
EXTT15=
EXTT16=
EXTT17=
PLAYORDER=
